<svg width="116" height="116" viewBox="0 0 116 116" fill="none" xmlns="http://www.w3.org/2000/svg">
<circle cx="58" cy="58" r="58" fill="white"/>
<path d="M107 85.6418C103.29 86.5853 100.995 85.6832 98.9356 82.5914L84.2922 62.3316L82.1757 59.5266L65.0748 82.6583C63.1209 85.441 61.0713 86.6522 57.4248 85.6673L79.3229 56.2722L58.9357 29.7203C62.4419 29.0382 64.8644 29.3856 67.016 32.5253L82.2044 53.0369L97.5044 32.6369C99.4647 29.8542 101.572 28.7959 105.091 29.8223L97.1857 40.3028L86.4757 54.2481C85.2007 55.8419 85.376 56.932 86.549 58.4716L107 85.6418ZM5.0255 55.7813L6.81687 46.9711C11.6937 29.5354 31.6794 22.2902 45.4621 33.064C53.5169 39.4007 55.5187 48.364 55.1202 58.4046H9.7175C9.03538 76.4778 22.0436 87.3854 38.6281 81.82C44.4453 79.8661 47.8719 75.3111 49.5867 69.6119C50.4569 66.7559 51.8977 66.3096 54.5816 67.1256C53.2109 74.2529 50.1191 80.2071 43.5847 83.9333C33.8214 89.5114 19.8856 87.7073 12.5544 79.9553C8.1875 75.4577 6.38338 69.7585 5.57375 63.664C5.44625 62.6567 5.19125 61.6973 5 60.7315C5.017 59.0825 5.0255 57.4335 5.0255 55.7845V55.7813ZM9.80038 54.5701H50.8299C50.5621 41.5013 42.4244 32.2193 31.3032 32.1396C19.0951 32.044 10.3295 41.1061 9.80038 54.5701V54.5701Z" fill="black"/>
</svg>
