<svg width="82" height="82" viewBox="0 0 82 82" fill="none" xmlns="http://www.w3.org/2000/svg">
<rect y="40.8328" width="57.7463" height="57.7463" rx="5" transform="rotate(-45 0 40.8328)" fill="#F4511E"/>
<path fill-rule="evenodd" clip-rule="evenodd" d="M37.4344 20.5746L28.8223 12L26 14.8346L34.5949 23.3921C34.2137 24.1807 34 25.0654 34 26C34 28.6124 35.6696 30.8349 38 31.6586V52.3414C35.6696 53.1651 34 55.3876 34 58C34 61.3137 36.6863 64 40 64C43.3137 64 46 61.3137 46 58C46 55.3876 44.3304 53.1651 42 52.3414V31.6586C42.2165 31.5821 42.4272 31.4935 42.6315 31.3937L50.6178 39.3452C50.2223 40.1456 50 41.0468 50 42C50 45.3137 52.6863 48 56 48C59.3137 48 62 45.3137 62 42C62 38.6863 59.3137 36 56 36C55.1007 36 54.2477 36.1978 53.482 36.5524L45.4365 28.5419C45.798 27.7701 46 26.9086 46 26C46 22.6863 43.3137 20 40 20C39.0821 20 38.2123 20.2061 37.4344 20.5746Z" fill="white"/>
</svg>
