<svg width="96" height="96" viewBox="0 0 96 96" fill="none" xmlns="http://www.w3.org/2000/svg">
<path d="M0 96V0H96V96H0Z" fill="#FFD600"/>
<path d="M63.2276 72.1042C65.0899 75.1952 67.1136 78.157 71.4006 78.157C75.0013 78.157 76.8905 76.3282 76.8905 73.7982C76.8905 70.7705 74.9367 69.6953 70.9754 67.9325L68.8036 66.9865C62.536 64.2695 58.3674 60.865 58.3674 53.6738C58.3674 47.0463 63.3326 42.0027 71.0911 42.0027C76.616 42.0027 80.5854 43.958 83.4488 49.0785L76.6833 53.4977C75.1951 50.7807 73.5858 49.711 71.0911 49.711C68.5453 49.711 66.9333 51.3527 66.9333 53.4977C66.9333 56.1487 68.548 57.2212 72.2752 58.863L74.4469 59.809C81.8341 63.0237 86 66.3072 86 73.6882C86 81.6412 79.8534 86 71.6024 86C63.5317 86 58.9487 81.8613 56.3975 76.738L63.2276 72.1042ZM32.0481 72.3297C33.4098 74.8212 35.4793 76.738 38.4557 76.738C41.3029 76.738 42.9418 75.5885 42.9418 71.1198V42H51.9114V72.5278C51.9114 81.787 46.6556 86 38.9805 86C32.0454 86 27.0399 81.1985 25 76.738L32.0481 72.3297Z" fill="#000001"/>
</svg>
