<svg width="32" height="37" viewBox="0 0 32 37" fill="none" xmlns="http://www.w3.org/2000/svg">
<path d="M11.2156 10.285L11.3156 12.585L9.71558 15.585L7.21558 20.485L6.71558 24.585L8.51558 30.385L12.6156 32.685H18.8156L24.6156 28.285L27.2156 21.385L21.2156 14.085L19.5156 9.98499L11.2156 10.285Z" fill="#ECEFF1"/>
<path d="M25.4155 15.985C23.8155 13.685 22.5155 12.285 21.8155 9.38501C21.1155 6.48501 22.0155 7.28501 21.4155 4.78501C21.1155 3.48501 20.6155 2.58501 20.1155 1.88501C19.5155 1.18501 18.8155 0.785012 18.4155 0.685012C17.5155 0.185012 15.4155 -0.614988 12.8155 0.785012C10.1155 2.18501 10.4155 5.18501 10.9155 11.285C10.9155 11.685 10.8155 12.185 10.6155 12.585C10.2155 13.485 9.51552 14.285 8.91552 14.985C8.21552 15.985 7.51552 16.985 7.01552 18.085C5.81552 20.385 4.71552 23.285 5.01552 24.385C5.51552 24.285 11.8155 33.885 11.8155 34.085C12.2155 33.985 13.9155 33.985 15.4155 33.985C17.5155 33.885 18.7155 33.785 20.4155 34.185C20.4155 33.885 20.3155 33.585 20.3155 33.285C20.3155 32.685 20.4155 32.185 20.5155 31.485C20.6155 30.985 20.7155 30.485 20.8155 29.885C19.8155 30.785 18.0155 31.785 16.3155 32.085C14.8155 32.385 12.3155 31.885 11.1155 30.385C11.2155 30.385 11.4155 30.385 11.5155 30.285C11.8155 30.185 12.1155 30.085 12.2155 29.885C12.5155 29.385 12.3155 28.885 12.1155 28.585C11.9155 28.285 10.4155 27.185 9.71552 26.585C9.01552 25.985 8.61552 25.685 8.21552 25.285C8.21552 25.285 7.61552 24.685 7.41552 24.485C7.21552 24.285 7.11552 24.085 7.01552 23.985C6.81552 23.485 6.71552 22.885 6.81552 22.085C6.91552 20.985 7.31552 20.085 7.81552 19.085C8.01552 18.685 8.51552 17.885 8.51552 17.885C8.51552 17.885 6.81552 22.085 7.71552 23.385C7.71552 23.385 7.81552 22.085 8.21552 20.785C8.51552 19.885 9.01552 18.585 9.61552 17.885C10.2155 17.185 11.7155 14.585 11.8155 12.985C11.8155 12.285 11.9155 11.585 11.9155 11.085C11.5155 10.685 18.5155 9.68501 18.9155 10.785C19.0155 11.185 20.4155 14.785 21.2155 16.685C21.6155 17.585 22.1155 18.385 22.4155 19.385C22.7155 20.485 22.9155 21.985 22.9155 23.485C22.9155 23.785 22.9155 24.285 22.8155 24.785C23.0155 24.785 26.9155 20.585 22.3155 17.085C22.3155 17.085 25.1155 18.385 25.2155 20.985C25.3155 23.085 24.4155 24.785 24.2155 25.085C24.3155 25.085 26.3155 25.985 26.4155 25.985C26.8155 25.985 27.6155 25.685 27.6155 25.685C27.7155 25.385 28.0155 24.585 28.0155 24.285C28.7155 21.985 27.0155 18.285 25.4155 15.985Z" fill="#263238"/>
<path d="M12.7155 9.38501C13.4335 9.38501 14.0155 8.48958 14.0155 7.38501C14.0155 6.28044 13.4335 5.38501 12.7155 5.38501C11.9976 5.38501 11.4155 6.28044 11.4155 7.38501C11.4155 8.48958 11.9976 9.38501 12.7155 9.38501Z" fill="#ECEFF1"/>
<path d="M17.2156 9.58499C18.1545 9.58499 18.9156 8.55524 18.9156 7.28499C18.9156 6.01473 18.1545 4.98499 17.2156 4.98499C16.2767 4.98499 15.5156 6.01473 15.5156 7.28499C15.5156 8.55524 16.2767 9.58499 17.2156 9.58499Z" fill="#ECEFF1"/>
<path d="M13.4418 7.52186C13.3587 6.86435 12.9804 6.37064 12.5969 6.41912C12.2133 6.4676 11.9698 7.03991 12.0529 7.69742C12.136 8.35492 12.5143 8.84864 12.8978 8.80016C13.2814 8.75168 13.5249 8.17936 13.4418 7.52186Z" fill="#212121"/>
<path d="M17.1155 8.98501C17.6678 8.98501 18.1155 8.40298 18.1155 7.68501C18.1155 6.96704 17.6678 6.38501 17.1155 6.38501C16.5632 6.38501 16.1155 6.96704 16.1155 7.68501C16.1155 8.40298 16.5632 8.98501 17.1155 8.98501Z" fill="#212121"/>
<path d="M30.4155 29.685C30.0155 29.485 29.3155 29.185 28.7155 28.285C28.4155 27.785 28.5155 26.385 28.0155 25.785C27.7155 25.385 27.3155 25.585 27.2155 25.585C26.3155 25.785 24.2155 27.185 22.8155 25.585C22.6155 25.385 22.3155 25.085 21.8155 25.085C21.3155 25.085 21.1155 25.285 20.9155 25.685C20.7155 26.085 20.7155 26.385 20.7155 27.385C20.7155 28.185 20.7155 29.085 20.6155 29.785C20.4155 31.485 20.1155 32.485 20.1155 33.485C20.1155 34.585 20.4155 35.285 20.8155 35.585C21.1155 35.885 21.6155 36.085 22.7155 36.085C23.8155 36.085 24.5155 35.685 25.2155 34.985C25.7155 34.485 26.1155 34.285 27.5155 33.285C28.6155 32.585 30.3155 31.685 30.6155 31.385C30.8155 31.185 31.1155 31.085 31.1155 30.485C31.1155 29.985 30.7155 29.785 30.4155 29.685Z" fill="#FFC107"/>
<path d="M10.3155 29.9849C9.31547 28.3849 9.21547 28.0849 8.51547 27.0849C7.91547 26.0849 6.61547 24.1849 5.81547 24.1849C5.21547 24.1849 4.91547 24.4849 4.51547 24.8849C4.11547 25.2849 3.71547 26.1849 3.01547 26.6849C2.41547 27.1849 0.71547 27.0849 0.31547 27.6849C-0.0845301 28.2849 0.71547 29.1849 0.71547 30.6849C0.71547 31.2849 0.21547 31.6849 0.11547 32.0849C0.0154701 32.5849 -0.0845299 32.8849 0.11547 33.2849C0.51547 33.8849 1.01547 34.0849 4.41547 34.7849C6.21547 35.1849 7.91547 36.1849 9.01547 36.2849C10.1155 36.3849 12.0155 36.2849 12.0155 33.5849C12.1155 31.9849 11.2155 31.5849 10.3155 29.9849Z" fill="#FFC107"/>
<path d="M12.2155 11.885C11.6155 11.485 11.1155 11.085 11.1155 10.485C11.1155 9.88496 11.5155 9.68496 12.1155 9.18496C12.2155 9.08496 13.3155 8.08496 14.4155 8.08496C15.5155 8.08496 16.8155 8.78496 17.3155 8.98496C18.2155 9.18496 19.1155 9.38496 19.0155 10.085C18.9155 11.085 18.8155 11.285 17.8155 11.785C17.1155 11.985 15.8155 13.085 14.9155 13.085C14.5155 13.085 13.9155 13.085 13.5155 12.985C13.2155 12.885 12.7155 12.385 12.2155 11.885Z" fill="#FFC107"/>
<path d="M12.0155 11.085C12.2155 11.285 12.5155 11.485 12.8155 11.585C13.0155 11.685 13.3155 11.785 13.3155 11.785C13.7155 11.785 14.0155 11.785 14.2155 11.785C14.7155 11.785 15.4155 11.585 16.1155 11.185C16.8155 10.885 16.9155 10.685 17.4155 10.485C17.9155 10.185 18.4155 9.88497 18.2155 9.78497C18.0155 9.68497 17.8155 9.78497 17.1155 10.185C16.5155 10.585 16.0155 10.785 15.4155 11.085C15.1155 11.185 14.7155 11.385 14.4155 11.385C14.1155 11.385 13.8155 11.385 13.5155 11.385C13.2155 11.385 13.0155 11.285 12.7155 11.185C12.5155 11.085 12.4155 10.985 12.3155 10.985C12.1155 10.885 11.7155 10.485 11.5155 10.385C11.5155 10.385 11.3155 10.385 11.4155 10.485C11.7155 10.785 11.8155 10.885 12.0155 11.085Z" fill="#634703"/>
<path d="M15.0154 8.8849C15.1154 9.0849 15.3154 9.0849 15.4154 9.1849C15.5154 9.2849 15.6154 9.2849 15.6154 9.2849C15.7154 9.1849 15.6154 8.9849 15.5154 8.9849C15.5154 8.7849 15.0154 8.7849 15.0154 8.8849Z" fill="#634703"/>
<path d="M13.4155 9.08491C13.4155 9.18491 13.6155 9.28491 13.6155 9.18491C13.7155 9.08491 13.8155 8.98491 13.9155 8.98491C14.1155 8.88491 14.0155 8.78491 13.7155 8.78491C13.5155 8.88491 13.5155 8.98491 13.4155 9.08491Z" fill="#634703"/>
<path d="M23.1156 26.7849C23.1156 26.8849 23.1156 26.9849 23.1156 27.0849C23.3156 27.4849 23.8156 27.5849 24.2156 27.5849C24.8156 27.5849 25.4156 27.1849 25.7156 26.7849C25.7156 26.6849 25.8156 26.5849 25.9156 26.4849C26.1156 26.1849 26.2156 25.9849 26.3156 25.8849C26.3156 25.8849 26.2156 25.7849 26.2156 25.6849C26.1156 25.4849 25.8156 25.2849 25.4156 25.1849C25.1156 25.0849 24.6156 24.9849 24.4156 24.9849C23.5156 24.8849 23.0156 25.1849 22.7156 25.4849C22.7156 25.4849 22.8156 25.4849 22.8156 25.5849C23.0156 25.7849 23.1156 25.9849 23.1156 26.2849C23.2156 26.4849 23.1156 26.5849 23.1156 26.7849Z" fill="#455A64"/>
</svg>
