<svg width="98" height="98" viewBox="0 0 98 98" fill="none" xmlns="http://www.w3.org/2000/svg">
<circle cx="49" cy="49" r="49" fill="white"/>
<path d="M31.4 31.4L33.778 29.6825C33.033 28.6511 31.7081 28.2175 30.4975 28.6089C29.2869 29.0004 28.4667 30.1277 28.4667 31.4H31.4ZM49 87.1333C27.9395 87.1333 10.8667 70.0607 10.8667 49H5C5 73.3003 24.6994 93 49 93V87.1333ZM87.1333 49C87.1333 70.0607 70.0607 87.1333 49 87.1333V93C73.3003 93 93 73.3003 93 49H87.1333ZM49 10.8667C70.0607 10.8667 87.1333 27.9395 87.1333 49H93C93 24.6994 73.3003 5 49 5V10.8667ZM49 5C24.6994 5 5 24.6994 5 49H10.8667C10.8667 27.9395 27.9395 10.8667 49 10.8667V5ZM34.3333 75.4V31.4H28.4667V75.4H34.3333ZM29.022 33.1175L67.1556 85.9172L71.9111 82.4828L33.778 29.6825L29.022 33.1175ZM63.6667 28.4667V63.6667H69.5333V28.4667H63.6667Z" fill="black"/>
</svg>
