<svg width="68" height="80" viewBox="0 0 68 80" fill="none" xmlns="http://www.w3.org/2000/svg">
<path d="M68 20L34 0L0 20V60L34 80L68 60V20Z" fill="#ECEFF1"/>
<path d="M63 22L35 6V18L53 28L63 22Z" fill="#81D4FA"/>
<path d="M33 6V18L15 28L5 22L33 6Z" fill="#81D4FA"/>
<path d="M14 30L4 24V56L14 50V30Z" fill="#81D4FA"/>
<path d="M15 52L5 58L33 74V62L15 52Z" fill="#81D4FA"/>
<path d="M53 52L35 62V74L63 58L53 52Z" fill="#81D4FA"/>
<path d="M64 24L54 30V50L64 56V24Z" fill="#81D4FA"/>
<path d="M51 29L34 20L17 29L34 39L51 29Z" fill="#0277BD"/>
<path d="M52 31L35 41V59.5L52 50V31Z" fill="#0277BD"/>
<path d="M16 31L33 41V59.5L16 50V31Z" fill="#0277BD"/>
</svg>
